<svg width="48" height="48" viewBox="0 0 48 48" fill="none" xmlns="http://www.w3.org/2000/svg">
<path fill-rule="evenodd" clip-rule="evenodd" d="M18.677 13.5318C19.2305 13.5318 19.773 13.5861 20.2939 13.6948C21.4442 9.15069 25.5353 5.7915 30.4186 5.7915C36.1917 5.7915 40.8688 10.477 40.8688 16.2604C40.8688 16.9997 40.7928 17.728 40.6409 18.4346C40.7169 18.4346 40.7928 18.4238 40.8688 18.4238C44.2545 18.4238 47 21.1742 47 24.566C47 27.9578 44.439 30.5125 41.2052 30.6864V30.7082H19.263V30.6756C19.0677 30.6864 18.8724 30.7082 18.677 30.7082C13.9457 30.7082 10.1042 26.8598 10.1042 22.12C10.1042 17.3801 13.9457 13.5318 18.677 13.5318Z" fill="#73A5E6" fill-opacity="0.32"/>
<path fill-rule="evenodd" clip-rule="evenodd" d="M31.9382 20.6741C31.3532 20.6741 30.7797 20.7315 30.2291 20.8463C29.0132 16.0475 24.6888 12.5 19.5271 12.5C13.4247 12.5 8.48088 17.4481 8.48088 23.5557C8.48088 24.3364 8.56118 25.1056 8.72176 25.8518C8.64147 25.8518 8.56118 25.8403 8.48088 25.8403C4.90206 25.8403 2 28.7449 2 32.3268C2 35.9087 4.70706 38.6066 8.12529 38.7903V38.8132H31.3188V38.7788C31.5253 38.7903 31.7318 38.8132 31.9382 38.8132C36.9394 38.8132 41 34.7492 41 29.7437C41 24.7382 36.9394 20.6741 31.9382 20.6741Z" fill="url(#paint0_linear_390_30488)"/>
<defs>
<linearGradient id="paint0_linear_390_30488" x1="2" y1="12.5" x2="2" y2="38.8132" gradientUnits="userSpaceOnUse">
<stop stop-color="#9FC7FF"/>
<stop offset="1" stop-color="#9BC1F5"/>
</linearGradient>
</defs>
</svg>
