<svg width="32" height="32" viewBox="0 0 32 32" fill="none" xmlns="http://www.w3.org/2000/svg">
<path d="M23.6667 18.5556C27.548 18.5556 30.6945 15.4091 30.6945 11.5278C30.6945 7.64644 27.548 4.5 23.6667 4.5C19.7854 4.5 16.6389 7.64644 16.6389 11.5278C16.6389 15.4091 19.7854 18.5556 23.6667 18.5556Z" fill="url(#paint0_linear_285_28452)"/>
<path fill-rule="evenodd" clip-rule="evenodd" d="M22.9588 13.7827C22.5688 13.7827 22.1865 13.821 21.8194 13.8975C21.0088 10.6983 18.1259 8.33331 14.6847 8.33331C10.6165 8.33331 7.32059 11.632 7.32059 15.7038C7.32059 16.2242 7.37412 16.737 7.48118 17.2345C7.42765 17.2345 7.37412 17.2269 7.32059 17.2269C4.93471 17.2269 3 19.1632 3 21.5512C3 23.9391 4.80471 25.7377 7.08353 25.8602V25.8755H22.5459V25.8525C22.6835 25.8602 22.8212 25.8755 22.9588 25.8755C26.2929 25.8755 29 23.1661 29 19.8291C29 16.4921 26.2929 13.7827 22.9588 13.7827Z" fill="url(#paint1_linear_285_28452)"/>
<defs>
<linearGradient id="paint0_linear_285_28452" x1="16.7326" y1="4.5" x2="16.7326" y2="18.3682" gradientUnits="userSpaceOnUse">
<stop stop-color="#FFC227"/>
<stop offset="1" stop-color="#FFB300"/>
</linearGradient>
<linearGradient id="paint1_linear_285_28452" x1="3" y1="8.33331" x2="3" y2="25.8755" gradientUnits="userSpaceOnUse">
<stop stop-color="#9FC7FF"/>
<stop offset="1" stop-color="#9BC1F5"/>
</linearGradient>
</defs>
</svg>
