<svg width="32" height="32" viewBox="0 0 32 32" fill="none" xmlns="http://www.w3.org/2000/svg">
<path fill-rule="evenodd" clip-rule="evenodd" d="M11.436 27.1882C11.0724 28.1925 9.96712 28.7093 8.96361 28.3381C7.96011 27.9742 7.44381 26.8679 7.81467 25.8636C8.05464 25.194 9.36356 24.1169 10.2071 23.4691C10.5489 23.2071 11.0506 23.3891 11.1452 23.8112C11.3778 24.8519 11.6833 26.5186 11.436 27.1882Z" fill="#66AFEB"/>
<path fill-rule="evenodd" clip-rule="evenodd" d="M17.186 27.1882C16.8224 28.1925 15.7171 28.7093 14.7136 28.3381C13.7101 27.9742 13.1938 26.8679 13.5647 25.8636C13.8046 25.194 15.1136 24.1169 15.9571 23.4691C16.2989 23.2071 16.8006 23.3891 16.8952 23.8112C17.1278 24.8519 17.4333 26.5186 17.186 27.1882Z" fill="#66AFEB"/>
<path fill-rule="evenodd" clip-rule="evenodd" d="M22.936 27.1882C22.5724 28.1925 21.4671 28.7093 20.4636 28.3381C19.4601 27.9742 18.9438 26.8679 19.3147 25.8636C19.5546 25.194 20.8636 24.1169 21.7071 23.4691C22.0489 23.2071 22.5506 23.3891 22.6452 23.8112C22.8778 24.8519 23.1833 26.5186 22.936 27.1882Z" fill="#66AFEB"/>
<path fill-rule="evenodd" clip-rule="evenodd" d="M22.4236 9.66017C22.0547 9.66017 21.6929 9.69641 21.3457 9.76888C20.5788 6.73946 17.8514 4.5 14.5959 4.5C10.7472 4.5 7.62911 7.62364 7.62911 11.4793C7.62911 11.9721 7.67975 12.4577 7.78103 12.9288C7.73039 12.9288 7.67975 12.9215 7.62911 12.9215C5.37195 12.9215 3.54163 14.7551 3.54163 17.0163C3.54163 19.2775 5.24896 20.9807 7.40484 21.0966V21.1111H22.033V21.0894C22.1632 21.0966 22.2934 21.1111 22.4236 21.1111C25.5778 21.1111 28.1389 18.5455 28.1389 15.3856C28.1389 12.2258 25.5778 9.66017 22.4236 9.66017Z" fill="url(#paint0_linear_285_28461)"/>
<defs>
<linearGradient id="paint0_linear_285_28461" x1="3.54163" y1="4.5" x2="3.54163" y2="21.1111" gradientUnits="userSpaceOnUse">
<stop stop-color="#9FC7FF"/>
<stop offset="1" stop-color="#9BC1F5"/>
</linearGradient>
</defs>
</svg>
