<svg width="32" height="32" viewBox="0 0 32 32" fill="none" xmlns="http://www.w3.org/2000/svg">
<g clip-path="url(#clip0_285_28471)">
<path d="M16.0001 23.8413C20.3307 23.8413 23.8414 20.3306 23.8414 16C23.8414 11.6694 20.3307 8.15875 16.0001 8.15875C11.6695 8.15875 8.15881 11.6694 8.15881 16C8.15881 20.3306 11.6695 23.8413 16.0001 23.8413Z" fill="url(#paint0_linear_285_28471)"/>
<path fill-rule="evenodd" clip-rule="evenodd" d="M21.3502 6.62751C21.0635 7.32001 20.2696 7.64893 19.5771 7.36217C18.8846 7.07541 18.5557 6.28156 18.8425 5.58905L19.4194 4.19584C19.7061 3.50334 20.5 3.17442 21.1925 3.46118C21.885 3.74794 22.2139 4.5418 21.9272 5.2343L21.3502 6.62751ZM13.1557 5.58957C13.4426 6.28201 13.1138 7.07593 12.4214 7.36284C11.7289 7.64974 10.935 7.32098 10.6481 6.62854L10.0709 5.23544C9.78401 4.543 10.1128 3.74908 10.8052 3.46218C11.4977 3.17527 12.2916 3.50403 12.5785 4.19648L13.1557 5.58957ZM25.3714 10.6482C24.679 10.9351 24.3502 11.729 24.6371 12.4214C24.924 13.1139 25.7179 13.4426 26.4104 13.1557L27.8035 12.5785C28.4959 12.2916 28.8247 11.4977 28.5378 10.8053C28.2509 10.1128 27.4569 9.78407 26.7645 10.071L25.3714 10.6482ZM5.58968 18.8445C6.28213 18.5576 7.07605 18.8863 7.36295 19.5788C7.64985 20.2712 7.32109 21.0651 6.62865 21.352L5.23556 21.9292C4.54311 22.2161 3.74919 21.8874 3.46229 21.1949C3.17539 20.5025 3.50414 19.7086 4.19659 19.4217L5.58968 18.8445ZM19.5789 24.6371C20.2714 24.3502 21.0653 24.679 21.3522 25.3714L21.9294 26.7645C22.2163 27.4569 21.8876 28.2509 21.1951 28.5378C20.5027 28.8247 19.7088 28.4959 19.4219 27.8035L18.8446 26.4104C18.5577 25.7179 18.8865 24.924 19.5789 24.6371ZM12.4232 24.638C13.1157 24.9247 13.4446 25.7186 13.1578 26.4111L12.5809 27.8043C12.2942 28.4968 11.5003 28.8257 10.8078 28.5389C10.1153 28.2522 9.78638 27.4583 10.0731 26.7658L10.6501 25.3726C10.9368 24.6801 11.7307 24.3512 12.4232 24.638ZM7.36226 12.4231C7.0755 13.1156 6.28165 13.4445 5.58915 13.1577L4.19594 12.5808C3.50343 12.294 3.17451 11.5002 3.46127 10.8077C3.74804 10.1152 4.54189 9.78626 5.23439 10.073L6.6276 10.6499C7.32011 10.9367 7.64903 11.7306 7.36226 12.4231ZM25.3726 21.3501C24.6801 21.0633 24.3512 20.2694 24.638 19.5769C24.9247 18.8844 25.7186 18.5555 26.4111 18.8423L27.8043 19.4192C28.4968 19.706 28.8257 20.4998 28.539 21.1923C28.2522 21.8848 27.4583 22.2137 26.7658 21.927L25.3726 21.3501Z" fill="url(#paint1_linear_285_28471)"/>
</g>
<defs>
<linearGradient id="paint0_linear_285_28471" x1="8.26336" y1="8.15875" x2="8.26336" y2="23.6322" gradientUnits="userSpaceOnUse">
<stop stop-color="#FFC227"/>
<stop offset="1" stop-color="#FFB300"/>
</linearGradient>
<linearGradient id="paint1_linear_285_28471" x1="3.52623" y1="3.35757" x2="3.52623" y2="28.3054" gradientUnits="userSpaceOnUse">
<stop stop-color="#FFC227"/>
<stop offset="1" stop-color="#FFB300"/>
</linearGradient>
<clipPath id="clip0_285_28471">
<rect width="25.3333" height="25.3333" fill="white" transform="translate(3.33337 3.33334)"/>
</clipPath>
</defs>
</svg>
